<svg xmlns="http://www.w3.org/2000/svg" id="Layer_1" enable-background="new 0 0 64 64" viewBox="0 0 64 64"><path d="M33.5 16.5c-.276 0-.5.224-.5.5v1c0 .276.224.5.5.5h4c.276 0 .5-.224.5-.5v-3c0-.276-.224-.5-.5-.5H34v-2h3V13c0 .276.224.5.5.5S38 13.276 38 13v-1c0-.276-.224-.5-.5-.5h-4c-.276 0-.5.224-.5.5v3c0 .276.224.5.5.5H37v2h-3V17C34 16.724 33.776 16.5 33.5 16.5zM44.5 13.5c.276 0 .5-.224.5-.5v-1c0-.276-.224-.5-.5-.5h-4c-.276 0-.5.224-.5.5v1c0 .276.224.5.5.5S41 13.276 41 13v-.5h1V18c0 .276.224.5.5.5S43 18.276 43 18v-5.5h1V13C44 13.276 44.224 13.5 44.5 13.5zM30.5 13.5c.276 0 .5-.224.5-.5v-1c0-.276-.224-.5-.5-.5h-4c-.276 0-.5.224-.5.5v5 1c0 .276.224.5.5.5h4c.276 0 .5-.224.5-.5v-3c0-.276-.224-.5-.5-.5h-2c-.276 0-.5.224-.5.5s.224.5.5.5H30v2h-3V17v-4.5h3V13C30 13.276 30.224 13.5 30.5 13.5zM20.969 43.479c-.827 0-1.5.673-1.5 1.5s.673 1.5 1.5 1.5 1.5-.673 1.5-1.5S21.796 43.479 20.969 43.479zM20.969 45.479c-.276 0-.5-.224-.5-.5s.224-.5.5-.5.5.224.5.5S21.245 45.479 20.969 45.479z"/><path d="M52,6.5H19c-1.378,0-2.5,1.122-2.5,2.5v12c0,1.378,1.122,2.5,2.5,2.5h13.5v9.979H30c-0.133,0-0.26,0.053-0.354,0.146   l-1.854,1.854H26h-1.5v-0.5c0-0.276-0.224-0.5-0.5-0.5h-6h-7.5H10c-0.276,0-0.5,0.224-0.5,0.5s0.224,0.5,0.5,0.5h0.5h7v12h-7H10   c-0.276,0-0.5,0.224-0.5,0.5s0.224,0.5,0.5,0.5h0.5H18h6c0.276,0,0.5-0.224,0.5-0.5v-1.5h1.293l1.854,1.854   c0.094,0.094,0.221,0.146,0.354,0.146h4.5V57c0,0.276,0.224,0.5,0.5,0.5h5c0.276,0,0.5-0.224,0.5-0.5v-8.521h1c1.103,0,2-0.897,2-2   c0-0.6-0.271-1.133-0.691-1.5c0.42-0.367,0.691-0.9,0.691-1.5s-0.271-1.133-0.691-1.5c0.42-0.367,0.691-0.9,0.691-1.5   s-0.271-1.133-0.691-1.5c0.42-0.367,0.691-0.9,0.691-1.5c0-1.103-0.897-2-2-2h-1V23.5H52c1.379,0,2.5-1.122,2.5-2.5V9   C54.5,7.622,53.379,6.5,52,6.5z M23.5,47.479h-5v-12h5v0.5v10V47.479z M37.5,56.5h-4v-8h4V56.5z M40.5,37.479c0,0.551-0.448,1-1,1   h-3.521h-1c-0.276,0-0.5,0.224-0.5,0.5s0.224,0.5,0.5,0.5h1H39.5c0.552,0,1,0.449,1,1s-0.448,1-1,1h-3.521h-1   c-0.276,0-0.5,0.224-0.5,0.5s0.224,0.5,0.5,0.5h1H39.5c0.552,0,1,0.449,1,1s-0.448,1-1,1h-3.521h-1c-0.276,0-0.5,0.224-0.5,0.5   s0.224,0.5,0.5,0.5h1H39.5c0.552,0,1,0.449,1,1s-0.448,1-1,1H38h-2.021h-7.772l-1.853-1.853c-0.046-0.046-0.102-0.083-0.163-0.109   c-0.061-0.025-0.126-0.038-0.191-0.038h-1.5v-9H26h2c0.133,0,0.26-0.053,0.354-0.146l1.854-1.854h2.288l-0.016,1.495   c-0.001,0.134,0.051,0.262,0.145,0.357c0.004,0.004,0.009,0.005,0.013,0.009c0.091,0.098,0.219,0.16,0.363,0.16h5   c0.037,0,0.07-0.013,0.104-0.021H39.5C40.052,36.479,40.5,36.928,40.5,37.479z M37.5,35.479h-4V23.5h4V35.479z M53.5,21   c0,0.827-0.673,1.5-1.5,1.5H38h-5H19c-0.827,0-1.5-0.673-1.5-1.5V9c0-0.827,0.673-1.5,1.5-1.5h33c0.827,0,1.5,0.673,1.5,1.5V21z"/><rect width="1" height="3" x="18.5" y="13.5"/><path d="M52 8.5H19c-.276 0-.5.224-.5.5v3.5h1v-3h32v3h1V9C52.5 8.724 52.276 8.5 52 8.5zM51.5 20.5h-32v-3h-1V21c0 .276.224.5.5.5h33c.276 0 .5-.224.5-.5v-3.5h-1V20.5z"/></svg>